<svg width="64" height="64" viewBox="0 0 64 64" fill="none" xmlns="http://www.w3.org/2000/svg">
<g clip-path="url(#clip0_181_2294)">
<path d="M13.05 58.1071L12.1895 60.4308L9.86038 59.7604L9.78162 58.4386C9.41663 58.1749 8.95662 57.9596 8.662 57.6064C7.93212 56.7314 7.30487 55.7714 6.58325 54.8889C6.13825 54.3448 5.726 53.7443 4.82762 53.7879C4.50837 53.8035 4.11037 53.4024 3.84437 53.1054C2.51962 51.626 1.5065 50.025 2.15263 47.9381L0.5235 46.593L1.61738 44.4273L0 44.1925C0.55625 43.5696 1.054 43.0119 1.6415 42.3538L0.19375 41.8628C0.58675 41.6543 0.76825 41.5343 0.9665 41.457C1.982 41.0611 2.05788 40.6838 1.27338 39.74C2.69763 38.8684 1.33812 37.6988 1.5795 36.6704C1.69262 36.1883 1.48763 35.6314 1.40663 34.9344L3.86575 35.3041C3.553 34.8228 3.43975 34.476 3.20075 34.3096C1.94488 33.4353 1.20487 31.5568 1.61812 30.1578C2.2315 28.0811 2.97238 27.4794 5.12663 27.6368C5.9245 27.695 6.552 27.5309 6.72788 26.8468C6.97225 25.8953 7.73637 25.7351 8.36312 25.7426C9.42787 25.7551 10.7304 24.8451 11.468 26.2174C12.1689 26.0636 12.8222 25.7609 13.4487 25.8089C17.0921 26.0883 20.0625 27.9001 22.822 30.1245C23.0855 30.3369 23.3499 30.7148 23.3708 31.0318C23.4536 32.2909 23.7922 33.6886 23.3791 34.7881C22.7698 36.4096 22.4875 38.0311 22.3966 40.0525L21.8341 39.0221L19.6491 41.5731L21.0045 42.1886L19.7197 43.6316L21.8939 44.1763C21.5196 45.6465 21.2756 45.7156 19.3323 44.5725L20.9376 47.541C21.6921 47.3415 22.4575 46.6885 23.5114 47.1848C23.1012 48.2229 21.468 48.6816 22.3031 50.204L23.8809 49.827L22.8076 50.7116C23.2739 51.6821 24.2449 51.9296 25.1315 52.1151C26.1906 52.3368 27.1591 52.5414 27.3902 54.0821C29.0801 52.3516 31.0674 52.526 32.8774 52.2251C34.6603 51.9289 36.3876 51.023 38.2764 51.5444C39.1559 50.2786 40.5951 51.2471 41.7272 50.7326C42.1531 50.5391 43.0841 51.4014 43.7324 51.857C43.7859 51.8945 43.4961 52.754 43.2641 52.8101C41.8604 53.1494 41.5081 54.0369 41.8775 55.2909L39.0392 55.7185L39.5047 57.1585C37.8626 57.0448 36.212 56.7494 34.475 57.3953L35.3587 58.2965C35.1835 58.3855 35.0213 58.5048 34.9914 58.4778C34.1834 57.7441 33.2399 57.736 32.1966 57.682C31.0785 57.6241 29.9744 57.4863 28.8464 57.5996C28.2225 57.6624 27.7426 57.7746 27.2922 58.3204C26.5791 59.1846 25.6841 59.7201 24.4818 59.0083C24.183 58.8315 23.6909 58.9819 23.1182 58.9819C22.4449 57.115 20.4398 58.5169 19.1383 57.4911C18.504 58.1989 17.9252 58.8404 17.3517 59.4865C16.8217 60.0834 16.2011 60.1118 15.6354 59.5408C15.4178 59.3213 15.2564 59.0413 15.0235 58.8428C14.801 58.6531 14.5185 58.5336 14.1781 58.3336L14.1071 59.599L13.0503 58.1071H13.05ZM15.8398 56.6456C15.6898 56.8039 15.5395 56.962 15.3894 57.1201L16.1259 57.6496L16.4597 57.2698L15.8398 56.6456ZM62.805 15.3493C63.1888 15.1268 63.4475 14.9768 63.855 14.7403C63.8988 15.173 64.0926 15.6243 63.9464 15.8838C62.9838 17.5913 61.544 18.8973 60.1425 20.236C59.1224 21.2105 57.9316 21.8235 56.5754 22.148C56.4581 22.176 56.2991 22.146 56.2236 22.214C54.7416 23.5495 52.8689 22.7696 51.2006 23.0788C50.2985 23.246 49.2524 22.7345 48.2909 22.46C46.9634 22.081 45.6496 21.6509 44.3408 21.2108C44.0048 21.0978 43.5059 20.9279 43.4275 20.6765C42.8494 18.8224 41.168 18.5565 39.7072 17.9554C39.5502 17.8908 39.4347 17.7255 39.2163 17.5333C40.1463 16.3195 41.3277 15.3933 42.7217 14.9464C43.5014 14.6966 43.7913 14.2906 44.013 13.6401C45.4198 13.6356 46.5709 13.0645 47.6976 12.3014C49.2301 11.2634 50.8478 10.3514 52.2011 9.52452C56.3969 10.6323 60.1888 11.827 62.805 15.3493ZM54.3288 13.7441C52.1063 12.2615 50.6806 12.2123 49.2404 13.7279C48.5144 14.492 48.0039 15.4944 47.5389 16.4579C47.3229 16.9054 47.2864 17.5794 47.4621 18.0381C47.6521 18.5336 48.1209 19.053 48.5971 19.2503C48.8183 19.3419 49.3719 18.7228 49.7207 18.372C49.8732 18.2188 49.8708 17.9216 49.9724 17.7058C50.5484 16.4808 51.1344 15.2605 51.6636 14.1508C52.6687 14.0634 53.5327 14.7195 54.3288 13.7441ZM11.0271 14.614C11.4905 13.7643 12.0646 13.1034 12.1962 12.3638C12.3375 11.5713 11.8815 10.675 12.013 9.8779C12.1934 8.78465 12.6817 7.74227 13.0755 6.56627C11.9514 6.49377 11.7896 7.84127 10.6736 8.15539C10.714 7.64602 10.6274 7.1324 10.8054 6.73865C12.7936 2.34202 18.2499 3.05115 20.2435 5.6519C20.6805 6.22202 21.2123 6.71964 21.665 7.21214C21.3621 11.8373 18.2559 14.0491 14.5518 15.7071C14.0953 15.9115 13.4178 15.75 12.8849 15.6039C12.598 15.5251 12.4404 15.0534 12.1517 14.8796C11.8862 14.7198 11.5234 14.7216 11.0271 14.614ZM13.9157 7.65077C14.9879 7.9759 15.2153 7.48239 15.2581 6.60802C14.4014 6.34702 14.1196 6.7779 13.9157 7.65077ZM19.2674 7.54264C18.7246 7.10665 18.2751 7.1269 17.9443 7.69415C17.8769 7.80952 18.021 8.19864 18.1553 8.25577C18.8083 8.53364 19.1155 8.1919 19.2674 7.54264ZM10.4536 13.478C11.2271 12.1925 10.0499 11.1251 10.1224 9.91802C9.2195 11.2179 10.3955 12.2855 10.4536 13.478Z" fill="#715B5E"/>
</g>
<defs>
<clipPath id="clip0_181_2294">
<rect width="64" height="64" fill="white"/>
</clipPath>
</defs>
</svg>
