<svg width="64" height="64" viewBox="0 0 64 64" fill="none" xmlns="http://www.w3.org/2000/svg">
<g clip-path="url(#clip0_181_2220)">
<path d="M43.0766 0.770508C43.0766 0.770508 32.6939 3.25666 29.5382 13.3071C29.5382 13.3071 23.7486 36.3299 21.6145 46.1539C19.313 56.7557 21.1837 62.3902 27.6157 63.1533C32.588 63.744 36.0293 60.3693 36.7702 54.1539C37.5037 47.9336 34.9733 43.8204 30.001 43.2296C29.2871 43.1459 28.14 42.7151 28.6914 41.0757C30.833 34.6684 33.9345 35.1927 36.6914 26.0776L43.0766 0.770508ZM10.1536 24.7705C3.88896 24.7705 0.152344 27.7588 0.152344 32.7705C0.152344 39.2444 5.43234 41.8044 16.2311 40.7705C17.4447 40.6548 18.5326 40.4727 20.076 40.3077C20.5117 38.437 20.9622 36.3939 21.4619 34.3065C20.0391 34.4591 20.1548 33.44 20.1548 32.7705C20.1548 27.7588 16.4133 24.7705 10.1536 24.7705ZM63.8471 24.7705L39.6896 28.3077C38.7176 31.1544 37.345 33.8482 35.6133 36.3077C35.0619 37.1102 34.5597 37.8634 34.0748 38.7693C43.116 37.6788 49.8434 36.768 49.8434 36.768C60.1991 34.821 63.8446 24.7705 63.8446 24.7705H63.8471ZM10.1536 28.768C16.1548 28.768 16.1548 31.781 16.1548 32.7705C16.1548 33.7576 16.1548 36.768 10.1536 36.768C4.15234 36.768 4.15234 33.7576 4.15234 32.7705C4.15234 31.781 4.15234 28.768 10.1536 28.768ZM26.8453 34.848C27.9382 34.848 28.8465 35.7539 28.8465 36.8468C28.8426 37.3762 28.6305 37.8827 28.2559 38.2567C27.8814 38.6308 27.3746 38.8424 26.8453 38.8456C26.3166 38.8411 25.8108 38.6291 25.4369 38.2552C25.063 37.8813 24.851 37.3755 24.8465 36.8468C24.851 36.3179 25.0629 35.8118 25.4367 35.4376C25.8105 35.0633 26.3163 34.8507 26.8453 34.8456V34.848ZM28.46 47.2296C28.8908 47.1877 29.292 47.2025 29.5382 47.2296C30.5203 47.3428 33.4766 47.7317 32.7702 53.6911C32.0613 59.648 29.0582 59.2665 28.076 59.1557C27.0939 59.04 24.1376 58.7274 24.8465 52.7681C25.3757 48.3004 27.1726 47.3625 28.4625 47.2296H28.46Z" fill="#998586"/>
</g>
<defs>
<clipPath id="clip0_181_2220">
<rect width="64" height="64" fill="white"/>
</clipPath>
</defs>
</svg>
