<svg width="64" height="64" viewBox="0 0 64 64" fill="none" xmlns="http://www.w3.org/2000/svg">
<path d="M52.1862 45.44L46.8609 41.9307L42.4209 49.3493L37.2555 47.8373L32.7062 54.7813L32.9382 56.968L57.6688 52.408L56.2342 36.9573L52.1862 45.44ZM29.1222 38.7787L33.0902 38.2347C33.7329 38.5227 34.1809 38.6347 34.9489 38.8293C36.1488 39.1413 37.5355 39.4427 39.5915 38.4027C40.0715 38.168 41.0662 37.256 41.4688 36.736L57.7248 33.7867L59.3835 53.8587L31.5329 58.8773L29.1222 38.7787ZM59.3222 31.5467L57.7169 31.8533L54.6342 0L2.10352 6.09333L8.57552 58.608L14.7248 57.7173C14.2342 57.016 13.4688 56.168 12.1648 55.08C10.3515 53.576 10.9915 51.0213 12.0608 49.408C13.4742 46.6827 20.7542 43.216 20.3435 38.8587C20.1942 37.2747 19.9435 35.2107 18.4715 33.7973C18.4182 34.384 18.5168 34.9493 18.5168 34.9493C18.5168 34.9493 17.9115 34.1787 17.6102 33.128C17.3115 32.728 17.0768 32.5973 16.7595 32.0613C16.5328 32.6827 16.5648 33.4027 16.5648 33.4027C16.5648 33.4027 16.0688 32.2373 15.9888 31.2507C15.6955 31.6933 15.6235 32.5307 15.6235 32.5307C15.6235 32.5307 14.9808 30.6907 15.1275 29.6987C14.8342 28.8373 13.9648 27.1253 14.2128 23.2347C15.8128 24.3573 19.3435 24.0907 20.7195 22.064C21.1755 21.3947 21.4875 19.56 20.4902 15.9493C19.8502 13.6347 18.2635 10.1893 17.6475 8.88L17.5728 8.93333C17.8982 9.98667 18.5702 12.1947 18.8262 13.2667C19.6075 16.5147 19.8182 17.6453 19.4502 19.144C19.1409 20.4453 18.3915 21.2987 16.4982 22.2507C14.6048 23.2053 12.0902 20.88 11.9302 20.752C10.0902 19.2853 8.66618 16.8933 8.50618 15.7307C8.34085 14.4587 9.23952 13.696 9.69285 12.656C9.04485 12.8427 8.32218 13.168 8.32218 13.168C8.32218 13.168 9.18352 12.2773 10.2475 11.504C10.6875 11.2133 10.9462 11.0293 11.4102 10.6427C11.0048 10.6359 10.5994 10.6385 10.1942 10.6507C10.1942 10.6507 11.3142 10.0453 12.4742 9.60533C11.6262 9.568 10.8128 9.59733 10.8128 9.59733C10.8128 9.59733 13.3115 8.48 15.2875 7.65867C16.6448 7.104 17.9702 7.26667 18.7169 8.344C19.6955 9.75733 20.7222 10.5227 22.9009 11C24.2369 10.4053 24.6422 10.1013 26.3249 9.64267C27.8022 8.016 28.9649 7.808 28.9649 7.808C28.9649 7.808 28.3889 8.336 28.2342 9.168C29.0715 8.504 29.9942 7.95467 29.9942 7.95467C29.9942 7.95467 29.6369 8.392 29.3035 9.09067L29.3835 9.20533C30.3595 8.61867 31.5089 8.15467 31.5089 8.15467C31.5089 8.15467 31.1809 8.57067 30.7942 9.10933C31.5329 9.104 33.0289 9.14133 33.6102 9.208C37.0368 9.28267 37.7489 5.544 39.0635 5.07467C40.7115 4.488 41.4475 4.13333 44.2555 6.888C46.6635 9.256 48.5462 13.4933 47.6129 14.4427C46.8288 15.2293 45.2822 14.136 43.5702 12C42.5942 10.7938 41.9376 9.36136 41.6609 7.83467C41.4803 6.95393 41.0145 6.15726 40.3355 5.568C40.3355 5.568 40.9489 6.928 40.9489 8.128C40.9489 8.784 41.0289 11.2347 42.0795 12.608C41.9755 12.8107 41.9275 13.6053 41.8129 13.7547C40.5915 12.2773 37.9649 11.2213 37.5355 10.9093C38.9862 12.096 42.3169 14.824 43.5969 17.44C44.8049 19.912 44.0928 22.1787 44.7062 22.7653C44.8795 22.9333 47.3089 25.9573 47.7729 27.4773C48.5889 30.128 47.8235 32.912 46.7569 34.6373L43.7782 35.1013C43.3435 34.9813 43.0502 34.92 42.6582 34.6933C42.8715 34.312 43.3008 33.36 43.3062 33.168L43.1382 32.872C42.2102 34.184 40.6582 35.4587 39.3675 36.192C37.6795 37.1493 35.7329 37.0027 34.4662 36.608C30.8715 35.5013 27.4715 33.0693 26.6529 32.432C26.6529 32.432 26.6262 32.9413 26.7809 33.056C27.6875 34.0773 29.7649 35.928 31.7729 37.216L27.4929 37.688L29.5169 53.4427C28.6182 53.5707 28.4769 53.632 27.4982 53.7733C26.6315 50.7147 24.9755 48.72 23.1675 47.5547C21.5702 46.5307 19.3702 46.3013 17.2635 46.7173L17.1302 46.8747C18.8732 46.6847 20.6282 47.1029 22.0982 48.0587C23.8422 49.16 25.2475 52.008 25.7649 53.7227C26.4262 55.9147 26.8848 58.256 25.1035 60.7413C23.8342 62.5067 20.1328 63.4827 17.1408 61.3733C17.9408 62.656 19.0208 63.7093 20.4742 63.9067C22.6315 64.2 24.6795 63.8267 26.0902 62.376C27.2955 61.1387 27.9302 58.552 27.7649 55.8267L29.6689 55.5493L30.3568 60.44L61.8955 56.6427L59.3222 31.5467ZM40.1329 18.2613C40.0422 18.4613 39.9062 18.5947 40.1142 19.248L40.1249 19.2853L40.1595 19.3707L40.2449 19.5653C40.6182 20.3307 41.0315 21.0533 41.7169 21.4213C41.8955 21.392 42.0795 21.3707 42.2689 21.36C42.9142 21.3333 43.3222 21.4347 43.5809 21.5733C43.6049 21.4453 43.6075 21.256 43.5942 20.9813C43.5462 20.0107 43.7862 18.3627 41.9249 17.4933C41.2209 17.168 40.2342 17.2693 39.9062 17.6747C39.9588 17.6811 40.0106 17.6927 40.0609 17.7093C40.5569 17.8853 40.2209 18.056 40.1329 18.2613ZM45.3542 27.3067C45.1088 27.1733 43.9675 27.2267 43.1649 27.32C41.6342 27.5013 39.9835 28.032 39.6235 28.312C38.9649 28.8213 39.2635 29.7067 39.7489 30.072C41.1115 31.0907 42.3088 31.7733 43.5675 31.6053C44.3409 31.504 45.0235 30.28 45.5089 29.168C45.8395 28.4 45.8395 27.5733 45.3542 27.3067ZM31.8155 19.4613C32.2475 19.0507 29.6689 18.5147 27.6662 19.8773C26.1889 20.8853 26.1435 23.0427 27.5569 24.2667C27.6982 24.3893 27.8129 24.4747 27.9222 24.544C29.0996 23.9895 30.3551 23.619 31.6448 23.4453C31.9462 23.112 32.2929 22.5253 32.2048 21.4587C32.0875 20.0133 30.9915 20.2427 31.8155 19.4613Z" fill="#715B5E"/>
</svg>
