<svg width="64" height="64" viewBox="0 0 64 64" fill="none" xmlns="http://www.w3.org/2000/svg">
<path d="M31.999 27.9279C38.655 21.2359 55.299 32.944 31.999 48C8.69897 32.944 25.343 21.2359 31.999 27.9279Z" fill="#715B5E"/>
<path d="M34.8272 6C34.077 5.25012 33.0598 4.82886 31.9992 4.82886C30.9385 4.82886 29.9213 5.25012 29.1712 6L2.58316 32.584C2.20814 32.9596 1.99767 33.4687 1.99805 33.9994C1.99842 34.5301 2.20961 35.039 2.58516 35.414C2.96071 35.789 3.46985 35.9995 4.00057 35.9991C4.5313 35.9987 5.04014 35.7875 5.41516 35.412L7.99916 32.828V54C7.99916 55.5913 8.6313 57.1174 9.75652 58.2426C10.8817 59.3679 12.4079 60 13.9992 60H49.9992C51.5905 60 53.1166 59.3679 54.2418 58.2426C55.367 57.1174 55.9992 55.5913 55.9992 54V32.828L58.5832 35.412C58.9582 35.7875 59.467 35.9987 59.9977 35.9991C60.5285 35.9995 61.0376 35.789 61.4132 35.414C61.7887 35.039 61.9999 34.5301 62.0003 33.9994C62.0006 33.4687 61.7902 32.9596 61.4152 32.584L51.9992 23.172V10C51.9992 9.46957 51.7884 8.96086 51.4134 8.58579C51.0383 8.21072 50.5296 8 49.9992 8H45.9992C45.4687 8 44.96 8.21072 44.5849 8.58579C44.2099 8.96086 43.9992 9.46957 43.9992 10V15.172L34.8272 6ZM51.9992 28.828V54C51.9992 54.5304 51.7884 55.0391 51.4134 55.4142C51.0383 55.7893 50.5296 56 49.9992 56H13.9992C13.4687 56 12.96 55.7893 12.5849 55.4142C12.2099 55.0391 11.9992 54.5304 11.9992 54V28.828L31.9992 8.828L51.9992 28.828Z" fill="#715B5E"/>
</svg>
