<svg width="64" height="64" viewBox="0 0 64 64" fill="none" xmlns="http://www.w3.org/2000/svg">
<path fill-rule="evenodd" clip-rule="evenodd" d="M35.3768 8.36683C34.1102 8.01083 32.4262 8.00016 30.7448 8.00016C28.6315 8.00016 27.3182 8.54683 26.4648 9.28016C25.5968 10.0242 25.0542 11.0908 24.7395 12.4002C24.4235 13.7188 24.3608 15.1908 24.3875 16.6335C24.3928 16.8695 24.3995 17.1028 24.4075 17.3335H49.3342C50.0702 17.3335 50.6755 17.9335 50.5915 18.6642C49.7355 26.1415 41.7382 32.0002 32.0008 32.0002C22.2622 32.0002 14.2662 26.1415 13.4102 18.6642C13.3262 17.9335 13.9302 17.3335 14.6675 17.3335H21.7395C21.7315 17.1202 21.7262 16.9042 21.7222 16.6842C21.6928 15.1602 21.7528 13.4228 22.1462 11.7802C22.5422 10.1295 23.2968 8.48416 24.7275 7.25616C26.1702 6.01616 28.1515 5.3335 30.7448 5.3335H30.8408C32.4035 5.3335 34.4408 5.3335 36.0995 5.80016C36.9622 6.04283 37.8488 6.44416 38.5262 7.14683C39.2395 7.88283 39.6235 8.8495 39.6235 10.0002C39.6235 10.3538 39.483 10.6929 39.233 10.943C38.9829 11.193 38.6438 11.3335 38.2902 11.3335C37.9365 11.3335 37.5974 11.193 37.3474 10.943C37.0973 10.6929 36.9568 10.3538 36.9568 10.0002C36.9568 9.48416 36.8035 9.20016 36.6102 9.00016C36.3822 8.76416 35.9928 8.54016 35.3768 8.36683ZM21.3342 56.0002V58.6668H42.6675V56.0002H21.3342Z" fill="#715B5E"/>
<path fill-rule="evenodd" clip-rule="evenodd" d="M40.0487 25.8135C41.9393 27.1148 42.6673 29.0055 42.6673 31.0708C42.6673 33.1308 41.9447 35.0481 40.0673 36.3868C38.75 37.3255 36.9607 37.9095 34.6673 38.1535V35.4695C36.502 35.2428 37.726 34.7801 38.518 34.2161C39.5567 33.4748 40.0007 32.4521 40.0007 31.0695C40.0007 29.6935 39.5607 28.7148 38.5367 28.0095C37.4087 27.2335 35.4033 26.6668 32.0007 26.6668V24.0001C35.5993 24.0001 38.2593 24.5815 40.0487 25.8135ZM29.334 35.6481V38.3175C28.0433 38.3668 26.91 38.4881 25.9927 38.7841C25.274 39.0148 24.8047 39.3215 24.5087 39.6895C24.2247 40.0415 24.0007 40.5748 24.0007 41.4615C24.0007 42.3521 24.2247 42.8881 24.51 43.2428C24.806 43.6121 25.2767 43.9201 25.994 44.1521C27.4873 44.6348 29.558 44.6535 31.9393 44.6535L31.9647 44.6508C32.0247 44.6468 32.1073 44.6401 32.2087 44.6375C32.4113 44.6281 32.6927 44.6241 33.0287 44.6388C33.8864 44.6736 34.7343 44.8354 35.5447 45.1188C36.4887 45.4601 37.502 46.0495 38.2767 47.0601C39.0607 48.0828 39.5167 49.4308 39.5167 51.1375C39.5167 52.8428 39.0607 54.1815 38.258 55.1815C37.4647 56.1695 36.4313 56.7081 35.4793 56.9961C35.2121 57.0766 34.9406 57.1421 34.666 57.1921V54.4561C34.6793 54.4522 34.6927 54.4482 34.706 54.4441C35.2993 54.2641 35.8127 53.9695 36.178 53.5135C36.5353 53.0681 36.8513 52.3495 36.8513 51.1375C36.8513 49.9268 36.5353 49.1721 36.1593 48.6815C35.7753 48.1801 35.242 47.8455 34.6393 47.6281C34.0802 47.4353 33.4957 47.3256 32.9047 47.3028C32.6616 47.2915 32.4181 47.2937 32.1753 47.3095L32.1447 47.3121H32.142L32.0753 47.3201H31.858C29.6327 47.3201 27.1247 47.3201 25.174 46.6895C24.142 46.3561 23.154 45.8148 22.4286 44.9108C21.6926 43.9935 21.334 42.8321 21.334 41.4615C21.334 40.0921 21.694 38.9335 22.43 38.0175C23.1553 37.1175 24.1433 36.5775 25.1753 36.2455C26.41 35.8481 27.866 35.7015 29.334 35.6481Z" fill="#715B5E"/>
<path fill-rule="evenodd" clip-rule="evenodd" d="M30.8203 48.0001V56.6668H33.487V48.0001H30.8203ZM30.8203 42.6668H33.487V26.8628H30.8203V42.6668Z" fill="#715B5E"/>
</svg>
