<svg width="50" height="50" viewBox="0 0 50 50" fill="none" xmlns="http://www.w3.org/2000/svg">
<path d="M16 2.99976C8.83203 2.99976 3 8.83179 3 15.9998V33.9998C3 41.1677 8.83203 46.9997 16 46.9997H34C41.168 46.9997 47 41.1677 47 33.9998V15.9998C47 8.83179 41.168 2.99976 34 2.99976H16ZM16 4.99976H34C40.0859 4.99976 45 9.91382 45 15.9998V33.9998C45 40.0857 40.0859 44.9997 34 44.9997H16C9.91406 44.9997 5 40.0857 5 33.9998V15.9998C5 9.91382 9.91406 4.99976 16 4.99976ZM37 10.9998C35.8945 10.9998 35 11.8943 35 12.9998C35 14.1052 35.8945 14.9998 37 14.9998C38.1055 14.9998 39 14.1052 39 12.9998C39 11.8943 38.1055 10.9998 37 10.9998ZM25 13.9998C18.9375 13.9998 14 18.9373 14 24.9998C14 31.0623 18.9375 35.9997 25 35.9997C31.0625 35.9997 36 31.0623 36 24.9998C36 18.9373 31.0625 13.9998 25 13.9998ZM25 15.9998C29.9824 15.9998 34 20.0173 34 24.9998C34 29.9822 29.9824 33.9998 25 33.9998C20.0176 33.9998 16 29.9822 16 24.9998C16 20.0173 20.0176 15.9998 25 15.9998Z" fill="#EB8671"/>
</svg>
