<svg width="63" height="67" viewBox="0 0 63 67" fill="none" xmlns="http://www.w3.org/2000/svg">
<path fill-rule="evenodd" clip-rule="evenodd" d="M56.9234 2.17656C55.0474 3.78775 54.0724 4.3547 53.1715 4.35867C51.2669 4.3674 48.9602 6.33526 47.2582 9.40331C45.9329 11.7929 45.7597 12.4178 45.7416 14.878C45.7267 16.855 45.3619 18.7987 44.4744 21.6227C43.2358 25.5648 43.2064 25.6116 39.8311 28.9626C37.9631 30.8174 34.7406 34.4774 32.6699 37.0959C30.5995 39.7144 27.5569 43.4637 25.9087 45.4276C22.3733 49.6403 19.7764 54.233 18.868 57.8791L18.2142 60.504L15.6848 61.432C14.2935 61.9426 11.9184 62.527 10.4065 62.7313C8.89464 62.9353 6.77407 63.2872 5.69414 63.5133C3.54254 63.9636 0 65.4348 0 65.8783C0 66.4128 6.9013 66.5798 11.2626 66.1513C14.6905 65.8141 16.7569 65.8391 20.6874 66.2644C26.3175 66.8738 45.1192 67.2507 45.6011 66.7639C46.0715 66.2886 44.397 63.8764 43.5963 63.8764C43.2103 63.8764 42.6193 63.4518 42.2827 62.9329C41.9191 62.3723 41.1133 61.8839 40.2973 61.7291L38.9232 61.4685L40.0243 59.1166C40.7972 57.4657 41.7557 56.2429 43.2409 55.0142C44.4049 54.0513 45.9651 52.4361 46.7085 51.4252C47.4519 50.4143 48.1846 49.7224 48.3366 49.8878C48.489 50.0533 49.5885 53.8184 50.7808 58.2552C51.9726 62.6917 53.0561 66.431 53.188 66.5643C53.5748 66.9551 60.5912 67.1876 60.4145 66.8036C59.5093 64.8357 59.0267 64.2195 58.2326 64.0184C57.6624 63.8736 56.9842 63.1515 56.4792 62.1517C55.6966 60.6016 55.6695 60.1513 55.9322 53.0765C56.0846 48.9821 56.361 45.0963 56.5472 44.4417C56.7329 43.7866 57.6699 42.2231 58.6289 40.967C59.8074 39.4232 60.7981 37.4446 61.6864 34.8622L63 31.0419L61.0825 23.7906C59.1669 16.546 59.1657 16.5364 59.6495 13.6279C59.9157 12.0266 60.7345 8.91333 61.4693 6.709L62.8052 2.70106L61.7387 1.35053C61.152 0.607817 60.3988 0 60.065 0C59.7308 0 58.3171 0.97957 56.9234 2.17656ZM59.536 1.26959C59.1798 1.47114 58.9898 1.80123 59.1135 2.00357C59.2372 2.20592 59.02 2.26741 58.6308 2.14006C58.0779 1.95954 58.0437 1.99564 58.4753 2.3055C58.9305 2.63242 58.8213 2.98513 57.8552 4.31265C56.7086 5.88773 56.6626 5.90876 55.7323 5.27476L54.7816 4.62647L55.6644 5.6108C56.4462 6.48325 56.4839 6.68242 55.9942 7.35927C55.4507 8.11031 55.428 8.11031 54.6151 7.36721C54.0453 6.84588 53.869 6.35629 54.0472 5.78855C54.2683 5.08511 54.2185 5.03869 53.706 5.46837C53.2131 5.88178 53.0631 5.85837 52.8656 5.33784C52.6834 4.85817 52.8389 4.73161 53.5069 4.81532C54.4168 4.92998 58.3249 2.85261 57.9373 2.46102C57.5921 2.11228 59.3691 0.394367 59.7979 0.662172C60.0163 0.798653 59.9028 1.06209 59.536 1.26959ZM61.5403 2.18608L62.3866 2.78517L61.2391 6.21545C60.6081 8.10198 60.0351 9.70286 59.966 9.77229C59.8969 9.84212 59.1763 9.09623 58.3642 8.11468L56.888 6.3305L58.5837 3.97025C59.5164 2.67209 60.3724 1.60484 60.4863 1.5985C60.6006 1.59215 61.0746 1.85638 61.5403 2.18608ZM53.0144 6.3547C53.0144 6.49317 52.5746 7.02402 52.0366 7.53424C51.0725 8.44953 51.0478 8.45191 50.233 7.70682L49.4063 6.95102L50.7171 5.84568C51.929 4.82326 52.0653 4.79152 52.5212 5.42156C52.7926 5.79608 53.0144 6.21624 53.0144 6.3547ZM54.6108 7.87623L55.5089 8.61101L54.606 10.8586C54.1097 12.0948 53.5744 13.1863 53.4174 13.2847C53.2603 13.3827 52.6775 12.3996 52.1226 11.0998L51.1134 8.73638L52.1167 7.93892C53.3475 6.96093 53.4876 6.95737 54.6108 7.87623ZM58.4466 8.82485C59.5733 10.3059 59.6954 10.6991 59.4622 12.098C58.9163 15.3752 58.7298 15.3517 57.3856 11.8385C56.2479 8.86532 56.0696 7.14146 56.8994 7.14146C57.0459 7.14146 57.7421 7.89885 58.4466 8.82485ZM49.9859 8.23886C50.3311 8.6241 51.1754 10.1528 51.8623 11.6358L53.1114 14.3325L52.3967 15.9941C52.0036 16.9078 51.6404 17.7176 51.5893 17.7937C51.3356 18.1734 46.3986 14.1607 46.2062 13.4184C45.9847 12.5614 48.4226 7.5382 49.0603 7.5382C49.2241 7.5382 49.6408 7.85362 49.9859 8.23886ZM57.3286 12.9395L58.6053 16.3575L56.5338 22.1639C55.3942 25.3577 54.3406 28.1127 54.1918 28.2861C54.0429 28.4599 53.4613 26.2821 52.8994 23.4466L51.8776 18.2916L53.4417 14.6475C55.104 10.7757 55.7103 9.52194 55.9212 9.52194C55.9931 9.52194 56.6265 11.0601 57.3286 12.9395ZM48.7588 16.5126C49.8237 17.3022 50.6135 18.0314 50.5133 18.1322C50.4136 18.2333 49.3301 18.1893 48.1057 18.035C46.0837 17.7794 45.9007 17.6767 46.1041 16.911C46.227 16.4476 46.3303 15.8453 46.333 15.5723C46.3413 14.8272 46.6456 14.9455 48.7588 16.5126ZM60.8445 24.5083C62.2083 29.762 62.4294 31.0752 62.0312 31.5601C61.7622 31.8878 61.6409 32.2556 61.7618 32.3778C61.9986 32.617 60.8205 36.3417 59.893 38.2861C59.5808 38.9408 58.8814 40.012 58.3383 40.6666L57.351 41.8569L57.9275 39.8731C58.2444 38.7821 58.5056 37.7335 58.5079 37.5434C58.5103 37.353 58.7773 37.4192 59.1013 37.691C59.7846 38.2639 59.9075 37.6724 59.2446 37.0027C58.912 36.6666 59.0946 36.1679 59.964 35.0388C61.3299 33.2649 61.7779 32.5333 61.4987 32.5333C61.388 32.5333 60.6945 33.3308 59.9582 34.3052L58.619 36.0766L56.4023 32.9665L54.1859 29.856L56.4368 23.666C57.675 20.2615 58.7962 17.6057 58.9281 17.764C59.0604 17.9223 59.9228 20.9574 60.8445 24.5083ZM48.0951 21.2704C45.0599 24.0897 43.905 24.9233 44.1567 24.1115C44.2431 23.8338 44.6802 22.446 45.1283 21.0276L45.9431 18.4488L48.388 18.5876L50.8334 18.7265L48.0951 21.2704ZM52.6221 24.3131C53.1126 26.8836 53.4331 29.0685 53.3341 29.1685C53.1868 29.3173 44.4277 25.9505 44.0707 25.6077C44.011 25.5509 45.5952 24.0532 47.5909 22.2798C49.5866 20.5063 51.3345 19.1867 51.4747 19.347C51.6152 19.5077 52.1317 21.7422 52.6221 24.3131ZM52.1638 29.5581C52.2718 29.6668 51.0117 29.7561 49.3635 29.7561H46.3668L45.3709 28.2754C44.8231 27.4609 44.375 26.6694 44.375 26.5166C44.375 26.2552 51.7421 29.132 52.1638 29.5581ZM44.3405 27.4748C44.6417 27.9655 45.1357 28.7535 45.4393 29.2248C45.9576 30.031 45.8665 30.1778 43.9156 31.6807C42.7744 32.5599 41.7864 33.224 41.7196 33.1566C41.5374 32.9725 43.356 26.5821 43.5904 26.5821C43.702 26.5821 44.0397 26.984 44.3405 27.4748ZM41.8971 30.5178L41.0371 33.8394L37.7722 36.5996C35.9768 38.1175 34.4374 39.2891 34.3522 39.2026C34.2666 39.1161 34.5497 37.8926 34.9817 36.4837C35.6768 34.2143 36.1547 33.5268 39.1667 30.4627C41.0371 28.5603 42.6099 27.0471 42.6621 27.0998C42.7147 27.1526 42.3703 28.6908 41.8971 30.5178ZM53.4071 30.3639C53.4071 30.4797 52.4305 32.7483 51.2363 35.4053C50.0425 38.062 49.1695 40.5111 49.2964 40.8479C49.4668 41.3014 49.4118 41.3451 49.0827 41.0154C48.7321 40.6638 46.7391 31.7033 46.7328 30.4504C46.732 30.2869 48.2333 30.1528 50.0692 30.1528C51.9051 30.1528 53.4071 30.2476 53.4071 30.3639ZM47.2834 35.9057C47.808 38.5238 48.198 40.7055 48.1505 40.7535C48.1033 40.8015 46.5757 39.3288 44.7568 37.4815C41.6085 34.2841 41.4864 34.0953 42.2246 33.5676C42.6515 33.2625 43.7031 32.446 44.562 31.7533C45.4208 31.0602 46.1701 30.64 46.227 30.819C46.2836 30.9983 46.7591 33.2871 47.2834 35.9057ZM56.1246 33.3208C57.2218 34.8447 58.1195 36.1699 58.1195 36.2655C58.1195 36.5698 49.8234 40.9475 49.6258 40.7476C49.4523 40.5722 53.772 30.5496 54.0209 30.5496C54.0806 30.5496 55.0274 31.7965 56.1246 33.3208ZM42.6754 46.0691C39.6147 48.429 37.0575 50.2056 36.9931 50.018C36.8745 49.6736 40.7269 35.8176 41.1196 35.176C41.2358 34.9856 42.8859 36.3937 44.7862 38.3044L48.2412 41.7791L42.6754 46.0691ZM34.2336 37.5315C33.7651 39.2304 33.3928 39.8402 32.6479 40.1262C30.6954 40.8761 30.6993 40.2647 32.6632 37.7902C33.7455 36.4266 34.6793 35.3105 34.7382 35.3105C34.7971 35.3105 34.5697 36.3099 34.2336 37.5315ZM40.3628 35.8065C40.2698 36.0794 39.3269 39.3764 38.2678 43.1332C37.2083 46.8904 36.2293 49.747 36.0922 49.4812C35.8472 49.0066 34.289 42.5512 34.0769 41.1316C34.0046 40.6472 34.9459 39.566 36.9138 37.8735C39.8335 35.3629 40.6892 34.8499 40.3628 35.8065ZM57.1307 40.9356C56.5456 42.9697 55.9302 44.7837 55.7629 44.9666C55.5957 45.1491 54.101 44.546 52.4419 43.6256C50.2483 42.4095 49.5426 41.8335 49.8563 41.5165C50.3492 41.0185 57.8521 37.0284 58.0587 37.1546C58.1333 37.2002 57.7154 38.9019 57.1307 40.9356ZM34.6981 46.0057C35.4172 49.1094 35.6202 50.6623 35.343 50.9424C34.9762 51.3129 26.3109 53.1971 26.3109 52.9063C26.3109 52.4119 28.9062 47.6097 29.1737 47.6097C29.3594 47.6097 30.7409 48.3477 32.2438 49.2499C33.7466 50.1517 35.0543 50.8111 35.1494 50.7146C35.2448 50.6186 34.2226 49.8819 32.8784 49.0781C31.5342 48.2739 30.1872 47.4542 29.8856 47.2558C29.4466 46.9678 29.7061 46.3619 31.1811 44.2302C32.1951 42.7642 32.9561 41.4954 32.8721 41.4105C32.7881 41.3252 31.8515 42.498 30.7912 44.0164C29.1285 46.3976 28.572 46.89 26.7448 47.5986C25.5793 48.0505 24.5433 48.3365 24.4424 48.2346C24.3411 48.1326 25.6064 46.4437 27.2541 44.4817C29.7399 41.5212 30.466 40.8932 31.52 40.7904C32.2186 40.7226 32.9836 40.8491 33.2196 41.0721C33.4556 41.2951 34.1209 43.5153 34.6981 46.0057ZM48.1163 48.7C47.9922 49.1999 46.3672 51.165 44.5054 53.0674L41.12 56.5266L38.8258 53.9672C37.5641 52.5595 36.662 51.2772 36.8211 51.1177C36.9801 50.9583 39.5841 48.9539 42.6079 46.6635L48.1057 42.4992L48.2239 45.1455C48.2887 46.6008 48.2404 48.2005 48.1163 48.7ZM52.3952 44.0735C54.0315 44.9654 55.3706 45.7517 55.3706 45.8216C55.3706 46.0465 51.4523 48.7999 51.1322 48.7999C50.9618 48.7999 50.52 47.6525 50.1501 46.25C49.7802 44.8471 49.3706 43.4189 49.2402 43.0761C48.9099 42.2056 49.0482 42.2496 52.3952 44.0735ZM52.0276 54.2969C54.2251 61.9922 54.6013 63.724 54.2452 64.5131C54.0095 65.0356 53.6616 65.4633 53.4723 65.4633C53.283 65.4633 52.1305 61.7319 50.9111 57.1709C49.2873 51.0959 48.6979 48.2052 48.7065 46.3596C48.714 44.7797 48.842 44.0624 49.0501 44.4357C49.2323 44.763 50.5722 49.2007 52.0276 54.2969ZM55.4963 53.6601C55.364 57.6423 55.1393 61.2281 54.9976 61.6284C54.8264 62.1116 54.3182 60.8456 53.4849 57.8593C52.7945 55.386 51.9742 52.5175 51.6612 51.4847L51.0926 49.6069L53.2956 48.0132C54.5071 47.1368 55.5521 46.4195 55.618 46.4195C55.6836 46.4195 55.6286 49.6779 55.4963 53.6601ZM28.2744 47.8013C28.2744 47.9065 27.6724 49.09 26.9368 50.431L25.5989 52.8694L24.5524 51.1939C23.9763 50.2723 23.5863 49.4363 23.6857 49.3363C23.9079 49.1118 27.573 47.6537 27.9798 47.6283C28.1416 47.618 28.2744 47.6958 28.2744 47.8013ZM24.3921 51.6978L25.4132 53.4054L23.3546 56.281C22.2221 57.8629 21.203 59.2507 21.0895 59.3653C20.976 59.48 20.6717 58.619 20.4129 57.4522C19.9507 55.3641 19.966 55.2884 21.3958 52.6603C22.195 51.1919 22.9662 49.9902 23.11 49.9902C23.2537 49.9902 23.8306 50.7587 24.3921 51.6978ZM35.2365 52.0787C35.1317 52.3548 33.1544 55.3157 30.8426 58.6587C28.5308 62.0021 26.713 64.8115 26.8029 64.9023C26.8928 64.9932 28.8952 62.2691 31.253 58.8488C33.6104 55.4288 35.6779 52.4377 35.8472 52.2028C36.0416 51.9331 36.9511 52.6452 38.3114 54.1318C40.0133 55.9922 40.3621 56.5837 39.967 56.9416C38.9731 57.8414 27.3908 65.1515 26.8265 65.2352C26.5084 65.282 26.0713 65.576 25.8553 65.8879C25.5899 66.2711 25.5306 64.4128 25.6727 60.158C25.7882 56.6948 25.9512 53.7922 26.0344 53.7081C26.1177 53.624 28.2017 53.1281 30.6663 52.6059C33.1305 52.0834 35.2098 51.6387 35.2868 51.6169C35.3638 51.595 35.3414 51.8029 35.2365 52.0787ZM25.218 59.8097C25.1202 62.7008 24.9097 65.0666 24.7507 65.0666C24.1624 65.0666 21.1618 60.3013 21.4414 59.8113C21.9311 58.9535 25.2726 54.3616 25.3358 54.4595C25.3692 54.5107 25.3162 56.9186 25.218 59.8097ZM20.374 59.6113C20.4039 60.0569 20.1388 60.3056 19.635 60.3056C18.7188 60.3056 18.7062 60.2191 19.3149 58.1235L19.776 56.5365L20.0516 57.7268C20.2032 58.3814 20.3485 59.2292 20.374 59.6113ZM38.1331 62.0406C37.0587 64.3596 36.1162 66.2568 36.0384 66.2568C35.7635 66.2568 32.8847 62.2604 33.0437 62.0997C33.5051 61.6331 39.8586 57.5942 39.9635 57.7002C40.0314 57.7684 39.2075 59.722 38.1331 62.0406ZM22.3595 62.8845C23.8502 64.9987 23.7002 64.9448 20.4938 62.216C19.0224 60.9634 18.9238 60.6 20.1015 60.7738C20.6002 60.8476 21.5474 61.7331 22.3595 62.8845ZM20.956 63.159C22.2814 64.2917 23.5286 65.3578 23.7273 65.528C24.0595 65.8121 22.2131 65.3261 15.9043 63.4693C14.4898 63.0531 13.7834 62.6806 14.1372 62.5373C15.5438 61.9676 17.8957 61.1527 18.2071 61.1269C18.394 61.1118 19.6311 62.0259 20.956 63.159ZM56.3347 62.9837C56.5322 63.6443 56.4419 63.8764 55.986 63.8764C55.5556 63.8764 55.3706 63.4951 55.3706 62.6068C55.3706 61.2511 55.8756 61.4487 56.3347 62.9837ZM41.621 62.944C42.1614 63.5232 42.0954 63.5582 40.8898 63.3316C40.161 63.1947 39.3214 63.0829 39.0245 63.0829C38.7276 63.0829 38.4846 62.7928 38.4846 62.4381C38.4846 61.9228 38.7398 61.845 39.7557 62.0501C40.4547 62.1914 41.2939 62.5937 41.621 62.944ZM33.9422 64.4131C34.7127 65.363 35.343 66.2556 35.343 66.3969C35.343 66.725 30.1197 66.7234 28.1495 66.3945L26.6506 66.1442L29.3276 64.4255C30.8002 63.4804 32.1256 62.702 32.2732 62.6964C32.4209 62.6909 33.1717 63.4633 33.9422 64.4131ZM13.7445 63.5463C14.4239 63.5728 21.3299 65.4578 21.5466 65.676C21.6264 65.7561 20.3894 65.7181 18.7977 65.5911C16.7616 65.4292 15.664 65.1408 15.0938 64.6187C14.0422 63.6558 13.4244 63.655 14.2864 64.6171C14.9269 65.332 14.8531 65.3677 12.1811 65.6339C8.78744 65.9716 7.85399 65.7208 7.85399 64.4711C7.85399 63.4018 8.92606 63.0825 11.5846 63.3598C12.4486 63.4498 13.4205 63.534 13.7445 63.5463ZM7.14752 65.5423C6.90248 65.7899 6.22979 65.6478 5.25353 65.142L3.73968 64.3572L5.50251 64.0005C7.07959 63.6815 7.27869 63.7236 7.3965 64.4009C7.46875 64.8174 7.35683 65.3308 7.14752 65.5423ZM9.62114 64.4838C8.97318 65.0202 8.61975 65.4594 8.83574 65.4594C9.05172 65.4594 9.75858 65.0202 10.4065 64.4838C11.0545 63.9474 11.4079 63.5082 11.1919 63.5082C10.976 63.5082 10.2691 63.9474 9.62114 64.4838ZM41.6089 63.9279C43.8453 64.3009 44.368 64.5369 44.7281 65.3352C44.9657 65.8625 45.1604 66.3751 45.1604 66.4739C45.1604 66.5726 43.2307 66.6536 40.8722 66.6536H36.5843L37.2012 65.0666C37.8892 63.2971 37.8653 63.3031 41.6089 63.9279ZM56.5585 65.2908C56.769 65.8506 56.9414 66.3862 56.9414 66.481C56.9414 66.7429 55.2658 66.6341 54.4839 66.3219C53.8497 66.0684 53.8438 65.9736 54.4081 65.1594C55.2222 63.9847 56.0869 64.0374 56.5585 65.2908ZM4.31969 65.265C5.26021 65.8081 5.21034 65.8319 3.1416 65.8335C1.15846 65.8347 1.04419 65.7871 1.74398 65.2523C2.6786 64.5381 3.06463 64.5401 4.31969 65.265ZM59.1437 65.3642C59.9275 66.4072 59.807 66.6536 58.5122 66.6536C57.8643 66.6536 57.3341 66.4897 57.3341 66.2894C57.3341 66.089 57.2269 65.6427 57.0958 65.2975C56.7573 64.4064 58.4659 64.4619 59.1437 65.3642Z" fill="#715B5E"/>
</svg>
