<svg width="64" height="64" viewBox="0 0 64 64" fill="none" xmlns="http://www.w3.org/2000/svg">
<path d="M30.6654 56H11.9987C11.2915 56 10.6132 55.7191 10.1131 55.219C9.61298 54.7189 9.33203 54.0406 9.33203 53.3333V10.6667C9.33203 9.95942 9.61298 9.28115 10.1131 8.78105C10.6132 8.28095 11.2915 8 11.9987 8H49.332C50.0393 8 50.7176 8.28095 51.2177 8.78105C51.7177 9.28115 51.9987 9.95942 51.9987 10.6667V26" stroke="#715B5E" stroke-width="4" stroke-linecap="round" stroke-linejoin="round"/>
<path d="M48.8467 36C52.06 36 54.6654 38.5067 54.6654 41.6C54.6654 45.6267 50.7854 49.0667 48.8467 50.9333C47.5534 52.1773 45.9387 53.4227 43.9987 54.6667C42.06 53.4227 40.4427 52.1773 39.1507 50.9333C37.2107 49.0667 33.332 45.6267 33.332 41.6C33.332 38.5067 35.9374 36 39.1507 36C41.1734 36 42.956 36.9947 43.9987 38.504C44.544 37.7256 45.2699 37.0911 46.1143 36.655C46.9587 36.2189 47.8963 35.9941 48.8467 36V36Z" stroke="#715B5E" stroke-width="4" stroke-linejoin="round"/>
<path d="M19.998 18.6666H41.3314" stroke="#715B5E" stroke-width="4" stroke-linecap="round"/>
</svg>
