<svg width="64" height="64" viewBox="0 0 64 64" fill="none" xmlns="http://www.w3.org/2000/svg">
<path d="M62 32.244V32.056L61.964 31.871C61.834 31.214 61.435 29.591 60.551 28.724C59.807 27.995 58.684 27.623 57.215 27.623C56.483 27.623 55.837 27.714 55.54 27.764C55.4413 27.7688 55.3429 27.7782 55.245 27.792C54.574 24.799 53.484 20.414 52.428 18.225C50.479 14.187 47.865 13.396 45.567 12.972C43.6968 12.6295 41.8083 12.3954 39.911 12.271V6.89C39.9118 6.65544 39.8197 6.43012 39.6547 6.26332C39.4898 6.09653 39.2656 6.00185 39.031 6H24.969C24.487 6 24.09 6.4 24.09 6.89V12.271C22.1927 12.3955 20.3043 12.6296 18.434 12.972C16.137 13.396 13.522 14.187 11.574 18.225C10.517 20.414 9.428 24.799 8.757 27.792C8.6592 27.7777 8.56074 27.7683 8.462 27.764C8.165 27.714 7.519 27.623 6.787 27.623C5.317 27.623 4.195 27.994 3.45 28.726C2.567 29.591 2.168 31.214 2.038 31.872L2 32.056V32.244C2.00212 33.2061 2.38582 34.1282 3.06691 34.8078C3.748 35.4873 4.67085 35.869 5.633 35.869H6.378C5.473 37.307 4.173 39.64 3.264 42.421C2.673 44.235 2.876 47.217 3.134 50.115L3.176 50.597C3.473 54.027 5.48 55.208 7.391 55.538V60.22C7.391 61.199 8.183 62 9.148 62H16.179C17.146 62 17.937 61.199 17.937 60.221V56.403C21.269 56.616 25.585 56.78 32.167 56.78C38.603 56.78 42.823 56.625 46.062 56.419V60.222C46.062 61.201 46.854 62.001 47.82 62.001H54.851C55.818 62.001 56.609 61.2 56.609 60.222V55.539C58.523 55.206 60.532 54.023 60.824 50.599L60.867 50.117C61.125 47.219 61.328 44.237 60.736 42.424C59.828 39.643 58.528 37.309 57.623 35.871H58.367C59.3293 35.8702 60.2519 35.488 60.9329 34.8082C61.6139 34.1283 61.9976 33.2062 62 32.244ZM37.307 8.225C37.307 7.98 37.497 7.78 37.731 7.78C37.963 7.78 38.153 7.98 38.153 8.225V10.895C38.1557 11.0098 38.1128 11.1209 38.0337 11.2042C37.9546 11.2874 37.8458 11.3359 37.731 11.339C37.6161 11.3359 37.507 11.2874 37.4276 11.2043C37.3482 11.1211 37.3048 11.01 37.307 10.895V8.225ZM33.939 9.157L33.35 8.161C33.226 7.952 33.322 7.779 33.564 7.779H33.653C33.895 7.779 34.167 7.925 34.256 8.104C34.346 8.284 34.507 8.604 34.613 8.819L34.701 9.021C34.707 9.021 34.785 8.847 34.873 8.635L34.967 8.43L35.088 8.179C35.1512 8.06394 35.2427 7.96686 35.3538 7.89689C35.4649 7.82691 35.5919 7.78635 35.723 7.779H35.806C36.047 7.779 36.143 7.95 36.016 8.16L35.424 9.139C35.3615 9.25555 35.3288 9.38575 35.3288 9.518C35.3288 9.65025 35.3615 9.78045 35.424 9.897L36.069 10.961C36.196 11.168 36.102 11.339 35.86 11.339H35.766C35.524 11.339 35.251 11.194 35.158 11.017L34.784 10.301L34.659 10.057C34.653 10.057 34.57 10.233 34.475 10.448L34.36 10.696L34.243 10.939C34.1806 11.0541 34.0898 11.1514 33.9791 11.2214C33.8685 11.2914 33.7417 11.3319 33.611 11.339H33.528C33.286 11.339 33.19 11.168 33.315 10.959L33.938 9.919C33.9995 9.80145 34.0317 9.67079 34.0319 9.53812C34.032 9.40546 34.0002 9.27471 33.939 9.157ZM29.18 10.916L30.048 8.202C30.0919 8.08294 30.1698 7.97938 30.272 7.90419C30.3742 7.82899 30.4963 7.78546 30.623 7.779H30.85C31.092 7.779 31.352 7.97 31.426 8.202L32.308 10.916C32.383 11.148 32.248 11.339 32.006 11.339H31.977C31.8503 11.3328 31.7282 11.2891 31.6264 11.2135C31.5245 11.1378 31.4475 11.0336 31.405 10.914L31.384 10.85C31.3414 10.7305 31.2643 10.6263 31.1625 10.5507C31.0607 10.475 30.9387 10.4313 30.812 10.425H30.624C30.498 10.4313 30.3768 10.4754 30.2762 10.5515C30.1756 10.6277 30.1002 10.7324 30.06 10.852L30.042 10.913C30.0028 11.0327 29.9282 11.1376 29.828 11.2138C29.7278 11.2901 29.6068 11.3341 29.481 11.34C29.241 11.339 29.105 11.148 29.18 10.916ZM26.287 7.779H28.271C28.513 7.779 28.71 7.931 28.71 8.117C28.71 8.305 28.513 8.456 28.271 8.456H28.133C27.891 8.456 27.694 8.656 27.694 8.901V10.894C27.694 11.138 27.504 11.338 27.271 11.338C27.038 11.338 26.847 11.138 26.847 10.894V8.901C26.8475 8.78385 26.8016 8.67126 26.7194 8.58787C26.6371 8.50447 26.5251 8.45706 26.408 8.456H26.287C26.045 8.456 25.848 8.305 25.848 8.117C25.848 7.932 26.045 7.779 26.287 7.779ZM55.65 33.962C55.456 34.2935 55.2895 34.6403 55.152 34.999C53.98 33.573 52.24 32.636 50.443 32.636C47.572 32.636 45.646 35.026 46.14 37.975C46.633 40.924 49.361 43.314 52.228 43.314C55.099 43.314 57.027 40.924 56.533 37.975C56.5068 37.8292 56.4751 37.6844 56.438 37.541C57.238 38.888 58.232 40.803 58.957 43.017C59.521 44.748 59.115 48.588 58.957 50.433C58.879 51.345 58.693 53.554 55.663 53.742C49.795 54.105 46.48 54.882 32.168 54.882C17.858 54.882 14.292 54.099 8.338 53.742C5.308 53.562 5.123 51.346 5.044 50.433C4.886 48.588 4.48 44.748 5.044 43.017C5.769 40.803 6.763 38.888 7.563 37.541C7.52626 37.6845 7.49457 37.8293 7.468 37.975C6.974 40.924 8.901 43.314 11.772 43.314C14.639 43.314 17.368 40.924 17.861 37.975C18.355 35.026 16.428 32.636 13.557 32.636C11.761 32.636 10.02 33.574 8.849 34.999C8.71161 34.6401 8.54471 34.2933 8.35 33.962C8.324 33.964 8.297 33.971 8.27 33.971H5.633C4.667 33.971 3.875 33.194 3.875 32.244C3.875 32.244 4.194 30.637 4.754 30.089C5.213 29.638 6.046 29.522 6.786 29.522C7.581 29.522 8.269 29.657 8.269 29.657C9.108 29.657 9.813 30.243 9.986 31.018C10.832 26.797 12.166 21.322 13.257 19.059C14.759 15.946 16.499 15.258 18.77 14.839C21.954 14.251 25.384 13.949 31.999 13.949C38.614 13.949 42.046 14.251 45.229 14.839C47.5 15.258 49.24 15.945 50.742 19.059C51.833 21.322 53.168 26.797 54.013 31.018C54.1028 30.6305 54.3215 30.2848 54.6332 30.0376C54.9449 29.7904 55.3312 29.6562 55.729 29.657C55.729 29.657 56.418 29.522 57.213 29.522C57.953 29.522 58.786 29.638 59.244 30.089C59.805 30.637 60.123 32.244 60.123 32.244C60.123 33.193 59.332 33.971 58.365 33.971H55.73C55.703 33.971 55.678 33.964 55.65 33.962ZM51.932 41.534C50.02 41.534 48.201 39.939 47.873 37.974C47.543 36.009 48.828 34.414 50.742 34.414C52.652 34.414 54.472 36.009 54.801 37.974C55.13 39.939 53.846 41.534 51.932 41.534ZM9.2 37.975C9.528 36.01 11.347 34.415 13.259 34.415C15.173 34.415 16.457 36.01 16.128 37.975C15.801 39.94 13.981 41.535 12.069 41.535C10.155 41.534 8.871 39.939 9.2 37.975Z" fill="#715B5E"/>
<path d="M46.9411 17.858C46.0291 17.226 39.1281 16.173 32.0001 16.173C24.8721 16.173 17.9721 17.226 17.0591 17.858C13.5931 20.259 12.6641 31.347 12.6641 31.347C12.6641 31.347 14.4481 32.19 17.0591 32.19C19.1471 32.19 19.6961 30.832 32.0001 30.832C44.3041 30.832 44.8541 32.19 46.9411 32.19C49.5521 32.19 51.3361 31.347 51.3361 31.347C51.3361 31.347 50.4081 20.26 46.9411 17.858ZM43.2581 49.14C38.9331 47.418 24.8221 47.194 20.7331 49.14C19.9711 49.502 19.1831 51.323 20.1311 51.323H43.8611C44.8091 51.322 44.0631 49.461 43.2581 49.14Z" fill="#715B5E"/>
<path d="M10.9064 50.433C11.8774 50.433 12.6644 49.6361 12.6644 48.653C12.6644 47.67 11.8774 46.873 10.9064 46.873C9.93552 46.873 9.14844 47.67 9.14844 48.653C9.14844 49.6361 9.93552 50.433 10.9064 50.433Z" fill="#715B5E"/>
<path d="M53.0939 50.433C54.0649 50.433 54.8519 49.6361 54.8519 48.653C54.8519 47.67 54.0649 46.873 53.0939 46.873C52.123 46.873 51.3359 47.67 51.3359 48.653C51.3359 49.6361 52.123 50.433 53.0939 50.433Z" fill="#715B5E"/>
<path d="M38.69 43.897C40.265 43.897 41.148 42.657 40.65 41.142L40.55 40.844C40.052 39.329 38.331 37.421 36.777 37.121C34.425 36.663 29.576 36.663 27.222 37.121C25.669 37.421 23.947 39.329 23.449 40.844L23.35 41.142C22.852 42.657 23.735 43.897 25.31 43.897H38.69ZM24.6 41.571L24.702 41.266C25.094 40.075 26.518 38.618 27.472 38.432C28.501 38.232 30.193 38.113 32.001 38.113C33.809 38.113 35.503 38.232 36.53 38.432C37.485 38.618 38.909 40.075 39.303 41.272L39.4 41.563C39.503 41.875 39.495 42.145 39.379 42.306C39.263 42.467 39.012 42.562 38.691 42.562H25.311C24.989 42.562 24.739 42.467 24.623 42.306C24.507 42.145 24.5 41.875 24.6 41.571Z" fill="#715B5E"/>
<path d="M36.7963 39.0039H27.2023C26.8563 39.1779 26.4563 39.4999 26.0913 39.8939H37.9073C37.5423 39.4999 37.1423 39.1779 36.7963 39.0039ZM38.8853 41.4149C38.8063 41.1942 38.7044 40.9824 38.5813 40.7829H25.4173C25.2955 40.9801 25.1946 41.1896 25.1163 41.4079L25.0273 41.6729H38.9703L38.8853 41.4149ZM30.7163 9.82386C30.9433 9.82386 31.0763 9.65386 31.0133 9.44586C30.9315 9.17771 30.8525 8.90869 30.7763 8.63886C30.7763 8.63886 30.7633 8.59286 30.7093 8.38086C30.7033 8.38086 30.6523 8.57586 30.5983 8.81386C30.5983 8.81386 30.5873 8.86186 30.5283 9.06786L30.4303 9.39786C30.3603 9.63186 30.4893 9.82386 30.7163 9.82386Z" fill="#715B5E"/>
</svg>
