<svg width="50" height="50" viewBox="0 0 50 50" fill="none" xmlns="http://www.w3.org/2000/svg">
<path d="M24.4263 3.00028C23.063 3.0081 21.6958 3.09013 20.3169 3.2581C17.6802 3.58232 15.0669 4.12138 12.5591 5.27372C8.5708 7.10575 5.74268 10.2151 4.92237 14.7347C4.57471 16.6409 4.29346 18.5745 4.1333 20.5198C3.82471 24.2972 4.01611 28.0862 5.08643 31.8089C5.93018 34.7425 7.48487 37.3792 10.2075 39.0901C11.3599 39.8128 12.8794 40.1643 13.6724 40.5315C13.895 40.637 13.9497 40.6995 13.9614 40.7151C13.9731 40.7268 14.0044 40.7542 14.0005 40.9886C13.9731 43.3792 14.0005 48.0042 14.0005 48.0042L14.0044 49.0003H15.7896L16.0786 48.719C16.0786 48.719 20.6138 44.3558 22.2544 42.5589C22.5513 42.2386 22.7036 42.0589 22.7349 42.0393C22.7622 42.0198 22.7153 42.0081 23.02 42.0003C25.1724 41.9573 27.3208 41.8753 29.4692 41.7581C32.3013 41.6018 35.188 41.3323 37.9653 40.1722C40.3833 39.1604 42.4028 37.5081 43.6255 35.0315C44.8755 32.4925 45.5435 29.8011 45.7935 27.0159C46.2075 22.3792 46.063 17.7347 44.7818 13.1565C44.0278 10.4729 42.5122 8.20341 40.188 6.60185C37.4067 4.68778 34.27 3.96903 31.1997 3.512C29.4067 3.24638 27.6021 3.0706 25.7896 3.01591C25.3364 3.00419 24.8833 2.99638 24.4263 3.00028ZM25.7349 5.01591C27.4575 5.06278 29.1802 5.23075 30.9067 5.48856C33.8677 5.92997 36.6607 6.60185 39.0552 8.25028C40.9966 9.58622 42.2075 11.3909 42.856 13.6917C44.0513 17.9729 44.2036 22.3597 43.8013 26.8401C43.5708 29.4222 42.9575 31.8558 41.8286 34.1487C40.8325 36.1722 39.2778 37.4573 37.1919 38.3284C34.77 39.3401 32.1372 39.6097 29.3638 39.762C27.2388 39.8792 25.1099 39.9573 22.981 40.0003C22.4458 40.012 21.9224 40.1526 21.5513 40.4261C21.1802 40.6995 21.0122 40.9534 20.7817 41.2034C19.6099 42.4847 17.2739 44.7386 16.0005 45.9729C15.9927 44.4808 15.981 42.6761 16.0005 41.012C16.0083 40.5003 15.8911 39.9768 15.5981 39.5628C15.3052 39.1487 14.9028 38.8987 14.5161 38.719C13.3872 38.1956 11.9106 37.7972 11.27 37.3948C9.03174 35.9886 7.76221 33.8792 7.0083 31.2542C6.02002 27.8206 5.83252 24.2854 6.12549 20.6878C6.28174 18.8206 6.55127 16.9495 6.89112 15.094C7.60205 11.1839 9.83643 8.72294 13.3911 7.09013C15.6372 6.05888 18.0357 5.55106 20.563 5.24247C22.2857 5.03153 24.0083 4.96513 25.7349 5.01591ZM26.1567 10.0003C25.3325 10.0003 24.5317 10.094 23.7544 10.2659C23.2192 10.3909 22.8794 10.9261 23.0005 11.4651C23.1216 12.0042 23.6607 12.3401 24.1997 12.219C24.8286 12.0745 25.4849 12.0003 26.1567 12.0003C31.0396 12.0003 34.9771 15.9378 34.9771 20.8167C34.9771 21.4925 34.9028 22.1487 34.7583 22.7815C34.6372 23.3167 34.9732 23.8558 35.5122 23.9768C36.0513 24.0979 36.5864 23.7581 36.7075 23.219C36.8833 22.4456 36.9771 21.6448 36.9771 20.8167C36.9771 14.8558 32.1216 10.0003 26.1567 10.0003ZM16.1802 12.0042C16.0161 11.9964 15.8481 12.0081 15.6724 12.0472C13.856 12.4495 12.0513 13.7659 12.0005 16.1175C12.0513 16.4456 12.0474 16.7972 12.1685 17.094C12.7622 18.5472 13.2778 20.0472 14.02 21.4222C17.6333 28.1018 23.0982 32.7464 30.063 35.6956C30.895 36.0472 31.7544 36.1214 32.5942 35.7698C33.7505 35.2893 34.731 34.5472 35.3833 33.4808C36.2778 32.0159 36.2896 31.0003 34.8169 29.9183C33.8521 29.2073 32.9028 28.4768 31.9263 27.7815C30.438 26.7268 28.8286 26.5433 27.7192 28.3948C27.6607 28.4886 27.5747 28.5667 27.5005 28.6448C26.9302 29.2503 26.231 29.3987 25.4888 29.094C22.6724 27.9339 20.4966 26.0628 19.1841 23.2776C18.4107 21.6409 18.6216 20.8206 20.0669 19.7308C20.2114 19.6253 20.3482 19.512 20.481 19.3909C21.1138 18.8128 21.2817 18.1253 20.9067 17.3479C20.0591 15.5745 18.9302 13.9925 17.5005 12.6292C17.1138 12.262 16.6724 12.0315 16.1802 12.0042ZM26.1411 13.0003C25.6997 13.0003 25.2622 13.0354 24.8325 13.1097C24.4692 13.1565 24.1607 13.3987 24.0278 13.7386C23.895 14.0823 23.9614 14.469 24.1958 14.7503C24.4341 15.0276 24.8091 15.1565 25.1685 15.0784C25.481 15.0276 25.8091 15.0003 26.1411 15.0003C29.3911 15.0003 32.0005 17.6097 32.0005 20.8597C32.0005 21.1917 31.9732 21.5198 31.9224 21.8323C31.8442 22.1917 31.9732 22.5667 32.2505 22.805C32.5317 23.0393 32.9185 23.1058 33.2622 22.9729C33.6021 22.8401 33.8442 22.5315 33.8911 22.1683C33.9653 21.7386 34.0005 21.3011 34.0005 20.8597C34.0005 16.5315 30.4692 13.0003 26.1411 13.0003ZM26.0005 16.0003C25.6411 15.9964 25.3052 16.1839 25.1216 16.4964C24.9419 16.8089 24.9419 17.1917 25.1216 17.5042C25.3052 17.8167 25.6411 18.0042 26.0005 18.0003C27.6685 18.0003 29.0005 19.3323 29.0005 21.0003C28.9966 21.3597 29.1841 21.6956 29.4966 21.8792C29.8091 22.0589 30.1919 22.0589 30.5044 21.8792C30.8169 21.6956 31.0044 21.3597 31.0005 21.0003C31.0005 18.2503 28.7505 16.0003 26.0005 16.0003Z" fill="#EB8671"/>
</svg>
