<svg width="50" height="50" viewBox="0 0 50 50" fill="none" xmlns="http://www.w3.org/2000/svg">
<path d="M25 1.99963C12.3099 1.99963 2 12.3095 2 24.9996C2 29.0791 3.11849 32.8851 4.98437 36.208L2.03776 46.7301C1.94141 47.0726 2.03516 47.441 2.28255 47.6963C2.52995 47.9515 2.89453 48.0556 3.24089 47.9697L14.2109 45.2509C17.4349 46.9723 21.0924 47.9996 25 47.9996C37.6901 47.9996 48 37.6897 48 24.9996C48 12.3095 37.6901 1.99963 25 1.99963ZM25 3.99963C36.6094 3.99963 46 13.3903 46 24.9996C46 36.609 36.6094 45.9996 25 45.9996C21.2786 45.9996 17.7917 45.0296 14.7617 43.333C14.5404 43.2093 14.2799 43.1754 14.0325 43.2353L4.42578 45.6168L7.0013 36.4254C7.07682 36.1624 7.04036 35.8811 6.90234 35.6455C5.0612 32.5231 4 28.8903 4 24.9996C4 13.3903 13.3906 3.99963 25 3.99963ZM16.6432 12.9996C16.0013 12.9996 15.0859 13.2379 14.3346 14.0491C13.8828 14.5348 12 16.3694 12 19.5934C12 22.9554 14.332 25.8551 14.6133 26.2288H14.6159V26.2301C14.5885 26.195 14.9727 26.7522 15.487 27.4202C16 28.0869 16.7174 28.9645 17.6198 29.9137C19.4232 31.8121 21.9583 34.0075 25.1055 35.3499C26.5547 35.9658 27.6979 36.3395 28.5651 36.6116C30.1693 37.1155 31.6315 37.0387 32.7305 36.8772C33.5521 36.7561 34.457 36.3603 35.3516 35.7939C36.2461 35.2288 37.1237 34.5244 37.5104 33.4554C37.7865 32.6884 37.9271 31.9788 37.9792 31.3968C38.0039 31.1051 38.0078 30.8473 37.9883 30.609C37.9687 30.3707 37.9896 30.1884 37.7682 29.8239C37.3021 29.0595 36.7747 29.04 36.2253 28.7679C35.9193 28.6155 35.0482 28.191 34.1758 27.7757C33.3034 27.359 32.5495 26.9918 32.0846 26.8265C31.7904 26.7197 31.431 26.5673 30.9141 26.6272C30.3971 26.6858 29.8854 27.0582 29.5885 27.4996C29.306 27.9176 28.1706 29.2575 27.8242 29.652C27.819 29.6494 27.8503 29.6624 27.7135 29.596C27.2852 29.3838 26.7617 29.2028 25.987 28.7939C25.2109 28.3864 24.2422 27.7822 23.1823 26.8473V26.8447C21.6029 25.4554 20.4974 23.7106 20.1484 23.1246C20.1719 23.0973 20.1458 23.1311 20.1953 23.0817L20.1979 23.0791C20.5534 22.7288 20.8698 22.3095 21.1367 22.0009C21.5156 21.566 21.6823 21.1806 21.8633 20.8213C22.224 20.1064 22.0234 19.3186 21.8151 18.9033V18.902C21.8294 18.9306 21.7018 18.6494 21.5651 18.3252C21.4271 18.0009 21.2513 17.5791 21.0651 17.1298C20.6901 16.2327 20.2721 15.2249 20.0234 14.6337V14.6324C19.7305 13.9371 19.3346 13.4371 18.8164 13.1949C18.2982 12.9528 17.8411 13.0218 17.8229 13.0205H17.8203C17.4505 13.0035 17.0456 12.9996 16.6432 12.9996ZM16.6432 14.9996C17.0286 14.9996 17.4089 15.0048 17.7266 15.0192C18.0547 15.0361 18.0339 15.0374 17.9714 15.0074C17.9062 14.9775 17.9935 14.9684 18.1797 15.4098C18.4232 15.9879 18.8437 16.9983 19.2187 17.9007C19.4062 18.3512 19.582 18.7731 19.7227 19.1051C19.8633 19.4371 19.9388 19.622 20.0273 19.7991V19.8004L20.0299 19.803C20.1159 19.9736 20.1081 19.8642 20.0781 19.9241C19.8672 20.3421 19.8385 20.4449 19.625 20.691C19.2995 21.066 18.9687 21.4827 18.793 21.6559C18.6393 21.8069 18.362 22.0413 18.1901 22.5022C18.0156 22.9619 18.0977 23.5947 18.375 24.066C18.7448 24.6936 19.9648 26.6793 21.8594 28.3473C23.0534 29.3994 24.1641 30.096 25.0521 30.5647C25.9414 31.0322 26.6641 31.3056 26.8255 31.3864C27.2109 31.5765 27.6302 31.7249 28.1185 31.6663C28.6081 31.6064 29.0286 31.3108 29.2969 31.0075L29.2982 31.0061C29.6562 30.6012 30.7161 29.3903 31.224 28.6442C31.2461 28.652 31.2396 28.6455 31.4075 28.7067V28.7093H31.4102C31.487 28.7366 32.4544 29.1689 33.3164 29.5804C34.1784 29.9905 35.0534 30.4176 35.3372 30.5582C35.7487 30.7614 35.9427 30.8942 35.9922 30.8942C35.9961 30.9827 35.9987 31.0778 35.9857 31.2223C35.9518 31.6233 35.8437 32.1793 35.6289 32.7757C35.5234 33.066 34.9753 33.6676 34.2825 34.1051C33.5911 34.5426 32.7487 34.8525 32.4375 34.8981C31.5 35.0361 30.3867 35.0869 29.1641 34.7028C28.3164 34.4371 27.2591 34.0921 25.8906 33.5101C23.1146 32.3252 20.7552 30.3108 19.0703 28.5374C18.2279 27.6494 17.5521 26.8239 17.0716 26.1989C16.5924 25.5752 16.3841 25.2509 16.2083 25.0218L16.207 25.0192C15.8971 24.609 14 21.971 14 19.5934C14 17.0778 15.168 16.0908 15.8008 15.4098C16.1328 15.0517 16.4961 14.9996 16.6419 14.9996H16.6432Z" fill="#EB8671"/>
</svg>
